<svg width="288" height="101" viewBox="0 0 288 101" fill="none" xmlns="http://www.w3.org/2000/svg">
<g clip-path="url(#clip0_1_2)">
<path d="M163.42 52.66C163.415 54.7159 163.098 56.7591 162.48 58.72L160.88 57.72C161.544 55.9712 161.864 54.1102 161.82 52.24L163.42 52.66ZM177.24 44C178.07 44.9 178.8 45.17 180.92 45.37C180.492 46.0602 180.156 46.8031 179.92 47.58C180.29 47.58 180.5 47.58 180.92 47.5V50.37C180.51 50.37 180.24 50.37 179.92 50.37V56.8C179.92 58.99 179.26 59.4 175.8 59.4C175.7 59.4 175.47 59.4 175.22 59.4C175.189 58.6288 175.054 57.8654 174.82 57.13H172.93V58.13H170.47C170.52 57.53 170.56 56.78 170.56 56.28V52.47C170.56 51.72 170.56 51.53 170.56 51.01C171.016 51.0371 171.474 51.0371 171.93 51.01H174.93C175.393 51.0379 175.857 51.0379 176.32 51.01C176.293 51.4963 176.293 51.9837 176.32 52.47V56.59C176.95 56.59 177.07 56.53 177.07 56.15V50.37H171.78C170.97 50.37 170.56 50.37 170.04 50.37C169.97 52.68 169.91 54.1 169.87 54.61C169.859 55.9377 169.584 57.2499 169.06 58.47C168.64 59.09 167.95 59.34 166.56 59.34H166C166.001 58.3828 165.839 57.4325 165.52 56.53C165.914 56.5955 166.311 56.6356 166.71 56.65C166.775 56.6615 166.842 56.6599 166.906 56.6455C166.971 56.6311 167.032 56.604 167.085 56.5659C167.139 56.5278 167.185 56.4793 167.22 56.4234C167.255 56.3675 167.279 56.3051 167.29 56.24C167.424 55.7625 167.514 55.2739 167.56 54.78L166.73 55.22C166.656 54.2706 166.496 53.33 166.25 52.41L167 52.16C167.264 52.9446 167.458 53.7511 167.58 54.57C167.656 53.6655 167.686 52.7576 167.67 51.85H163.3C162.67 51.85 162.23 51.85 161.8 51.91C161.86 51.31 161.88 50.54 161.88 49.7V42.7C161.897 41.9286 161.863 41.157 161.78 40.39C162.548 40.4588 163.319 40.4855 164.09 40.47H167.56C168.338 40.483 169.116 40.4496 169.89 40.37V43.09C169.403 43.0283 168.911 43.0016 168.42 43.01H168.23V43.86H168.46C168.834 43.8616 169.208 43.8416 169.58 43.8V45.63C170.136 45.5303 170.679 45.3693 171.2 45.15C171.826 44.9361 172.383 44.5559 172.81 44.05H172.27C171.602 44.0483 170.934 44.0851 170.27 44.16V41.32C171.049 41.4201 171.835 41.4635 172.62 41.45H173.62C173.62 41.18 173.62 41.01 173.62 40.83C173.624 40.5289 173.604 40.2279 173.56 39.93L176.68 39.99C176.68 40.2 176.68 40.35 176.62 40.99C176.62 41.16 176.62 41.26 176.62 41.49H178C178.815 41.504 179.631 41.4606 180.44 41.36V44.2C179.756 44.1287 179.068 44.092 178.38 44.09L177.24 44ZM164.71 52.43C164.895 53.8659 164.985 55.3123 164.98 56.76C164.98 56.99 164.98 57.34 164.98 57.76L163.67 58.03C163.75 56.74 163.77 56.09 163.77 55.03C163.77 53.97 163.77 53.64 163.67 52.56L164.71 52.43ZM165.71 42.96H164.65V43.81H165.71V42.96ZM164.65 45.75V46.6H165.71V45.75H164.65ZM164.65 48.54V49.54H165.71V48.54H164.65ZM165.88 52.29C166.137 53.5566 166.304 54.8398 166.38 56.13L165.38 56.38C165.362 55.0825 165.242 53.7885 165.02 52.51L165.88 52.29ZM169.52 47.5C169.914 47.5557 170.312 47.5891 170.71 47.6C170.402 46.9122 170.002 46.2696 169.52 45.69V45.81C169.148 45.7709 168.774 45.7508 168.4 45.75H168.17V46.6H168.36C168.747 46.6021 169.135 46.582 169.52 46.54V48.6C169.08 48.6 168.75 48.54 168.36 48.54H168.17V49.54H168.42C168.786 49.5615 169.154 49.5615 169.52 49.54V47.5ZM177.74 47.6C176.664 47.1757 175.711 46.488 174.97 45.6C174.228 46.4743 173.289 47.1597 172.23 47.6H177.74ZM172.81 54.55H173.87V53.37H172.81V54.55Z" fill="#3E3A39"/>
<path d="M205.29 56.43C205.29 57.84 204.94 58.51 204 58.88C202.994 59.1714 201.944 59.2765 200.9 59.19H199.24C199.13 58.0793 198.847 56.9927 198.4 55.97C199.84 56.09 200.63 56.15 201.17 56.15C201.98 56.15 202.07 56.15 202.07 55.68V49H198.78C197.78 49 196.78 49.05 195.99 49.13V47C195.51 47.64 195.26 48 194.7 48.64V56.69C194.682 57.595 194.722 58.5002 194.82 59.4H191.35C191.456 58.4806 191.503 57.5554 191.49 56.63V51.63C191.067 52.0832 190.601 52.4951 190.1 52.86C189.86 51.6949 189.417 50.5812 188.79 49.57C190.914 48.2868 192.7 46.5141 194 44.4L196.06 45.87C196.987 45.9622 197.918 46.0056 198.85 46H205.85C206.775 46.0181 207.701 45.9747 208.62 45.87V49.08C207.79 49 206.87 48.95 205.96 48.95H205.37L205.29 56.43ZM196.2 41.67C196.067 41.7804 195.947 41.9044 195.84 42.04C194.291 43.7476 192.478 45.1959 190.47 46.33C190.108 45.2686 189.545 44.2872 188.81 43.44C190.312 42.7692 191.67 41.8151 192.81 40.63C193.136 40.3112 193.416 39.9476 193.64 39.55L196.34 41.55L196.2 41.67ZM196.93 40.55C197.82 40.6457 198.715 40.6857 199.61 40.67H205C205.872 40.6814 206.743 40.6413 207.61 40.55V43.75C206.77 43.67 205.94 43.63 205.07 43.63H199.57C198.57 43.63 197.68 43.63 196.89 43.75L196.93 40.55Z" fill="#3E3A39"/>
<path d="M217.36 45.6C217.84 45.6 218.36 45.67 219.53 45.67H220.25C221.605 43.8296 222.699 41.8105 223.5 39.67L227.06 40.61C226.89 40.88 226.89 40.9 226.62 41.4C225.879 42.8591 225.023 44.2568 224.06 45.58C227.85 45.48 228.37 45.46 230.41 45.29C229.681 44.3693 228.889 43.5006 228.04 42.69L230.89 41.15C232.988 43.2515 234.877 45.5524 236.53 48.02L233.64 49.79C233.07 48.91 232.91 48.64 232.45 48C228.68 48.46 226.17 48.6 219.23 48.85C218.758 48.8562 218.287 48.8929 217.82 48.96L217.36 45.6ZM219.13 59.3C219.217 58.3793 219.257 57.4548 219.25 56.53V52C219.254 51.2854 219.22 50.5711 219.15 49.86C219.61 49.86 220.25 49.92 221.29 49.92H232.29C233.29 49.92 233.96 49.92 234.44 49.86C234.349 50.5695 234.312 51.2849 234.33 52V56.52C234.319 57.4451 234.363 58.37 234.46 59.29H231.1V58.41H222.4V59.29L219.13 59.3ZM222.38 55.51H231.14V52.82H222.38V55.51Z" fill="#3E3A39"/>
<path d="M247.24 50C246.469 49.0242 245.535 48.1886 244.48 47.53L246.39 45.07C247.372 45.6914 248.255 46.4566 249.01 47.34C249.057 47.1623 249.094 46.982 249.12 46.8L250.47 47.13C250.335 48.2533 250.049 49.3533 249.62 50.4C249.212 50.0376 248.726 49.7741 248.2 49.63C248.553 49.0067 248.806 48.3318 248.95 47.63L247.24 50ZM249.35 52.4C248.888 54.4313 248.31 56.4346 247.62 58.4C247.538 58.6058 247.468 58.8161 247.41 59.03C247.367 59.1977 247.31 59.3616 247.24 59.52L244.58 57.3C244.953 56.7865 245.24 56.2157 245.43 55.61C246.047 54.027 246.516 52.3899 246.83 50.72L249.35 52.4ZM248.58 44.78C248.97 44.78 249.1 44.78 249.8 44.84C249.922 44.6865 250.056 44.5427 250.2 44.41C249.86 44.0556 249.499 43.7217 249.12 43.41L247.81 44.88C246.965 43.8106 245.951 42.8853 244.81 42.14L246.93 39.93C247.758 40.488 248.526 41.1316 249.22 41.85L249.66 41.24L250.01 41.51C250.4 40.9467 250.735 40.3473 251.01 39.72L252.51 40.64C251.99 41.39 251.57 41.97 251.18 42.49C251.284 42.5991 251.395 42.7026 251.51 42.8C251.97 42.18 252.3 41.68 252.8 40.87L254.17 41.78V41.7C254.44 41.7 254.67 41.7 255.23 41.7H257.67C257.968 41.7034 258.265 41.6834 258.56 41.64V42L259.31 41L259.65 41.25C260.078 40.7104 260.453 40.1311 260.77 39.52L262.33 40.52C261.81 41.16 261.33 41.77 260.81 42.29L261.17 42.64C261.67 42.054 262.141 41.4432 262.58 40.81L264.12 41.81C263.222 42.8178 262.256 43.7633 261.23 44.64C261.75 44.64 261.9 44.64 262.52 44.58C262.39 44.29 262.35 44.18 262.19 43.85L263.56 43.29C264.024 44.0593 264.393 44.882 264.66 45.74L263.14 46.53L263.02 46.05C262.69 46.1 262.58 46.1 262.27 46.14V49.14C262.262 49.5217 262.288 49.9033 262.35 50.28H260.27C260.313 49.9015 260.333 49.5209 260.33 49.14V46.3C259.4 46.37 258.81 46.41 258.61 46.45L258.36 44.58C258.634 44.624 258.912 44.6441 259.19 44.64C259.52 44.35 259.6 44.24 259.83 44.04C259.419 43.6534 258.974 43.3053 258.5 43V43.15C258.127 43.1254 257.753 43.1254 257.38 43.15H255.15C254.817 43.128 254.483 43.128 254.15 43.15V42C253.643 42.6548 253.103 43.2823 252.53 43.88L253.67 43.42C253.964 44.007 254.221 44.6114 254.44 45.23C254.84 45.23 255.11 45.23 255.44 45.23H257.19C257.55 45.23 257.82 45.23 258.19 45.23V46.54C257.78 46.54 257.51 46.54 257.19 46.54H255.38C255.07 46.54 254.82 46.54 254.38 46.54V46L253.18 46.64L253.07 46.21C252.878 46.242 252.684 46.262 252.49 46.27V47.08L253.72 46.71C254.016 47.5611 254.23 48.4384 254.36 49.33V47.89C254.36 47.41 254.36 47.18 254.36 46.89C254.67 46.89 254.99 46.94 255.42 46.94H257.19C257.63 46.94 257.94 46.94 258.19 46.89C258.19 47.14 258.19 47.29 258.19 47.89V49C258.491 48.2618 258.683 47.4836 258.76 46.69L260.15 47.19C260.044 48.2616 259.785 49.3123 259.38 50.31C259.057 49.9333 258.649 49.6386 258.19 49.45C258.19 49.97 258.19 50.08 258.19 50.37C257.857 50.3473 257.523 50.3473 257.19 50.37H255.42C254.9 50.37 254.67 50.37 254.36 50.37C254.36 50 254.36 49.91 254.36 49.37L253.07 49.81C252.977 48.888 252.783 47.9792 252.49 47.1V49.18C252.486 49.5642 252.507 49.9483 252.55 50.33H250.45C250.493 49.9483 250.514 49.5642 250.51 49.18V46.4C250.31 46.4 250.14 46.4 250.01 46.4C249.608 46.4114 249.207 46.4515 248.81 46.52L248.58 44.78ZM252.41 56.62C252.281 56.9608 252.134 57.2946 251.97 57.62L248.76 57.14C249.552 55.832 250.091 54.387 250.35 52.88C250.64 52.88 251.03 52.88 251.53 52.88H259.82V52.38H251.72C251.103 52.3612 250.485 52.3813 249.87 52.44V50.7C250.484 50.7751 251.102 50.8052 251.72 50.79H260.72C261.444 50.7986 262.169 50.7686 262.89 50.7C262.821 51.1499 262.791 51.6049 262.8 52.06V53.06C262.786 53.5251 262.816 53.9906 262.89 54.45C262.24 54.45 261.89 54.45 260.89 54.45H253.06C253 54.72 252.98 54.74 252.94 54.97H262.28C262.735 54.9757 263.189 54.9489 263.64 54.89C263.527 55.4451 263.443 56.0059 263.39 56.57C263.07 59.05 262.59 59.4 259.72 59.4C258.89 59.4 258.02 59.4 257.12 59.3C256.975 58.5641 256.715 57.8555 256.35 57.2C257.262 57.3205 258.18 57.3873 259.1 57.4C260.1 57.4 260.24 57.34 260.28 56.61L252.41 56.62ZM252.68 44.76C252.55 44.41 252.51 44.32 252.39 44.03L251.64 44.82C252.07 44.79 252.24 44.79 252.68 44.75V44.76ZM258.11 41.33C257.8 41.33 257.53 41.33 257.28 41.33H255.28C254.947 41.3109 254.613 41.3109 254.28 41.33V39.95C254.612 39.9921 254.946 40.0121 255.28 40.01H257.22C257.554 40.0127 257.888 39.9927 258.22 39.95V41.33H258.11ZM258.19 44.86C257.8 44.86 257.48 44.86 257.19 44.86H255.38C255.09 44.86 254.8 44.86 254.38 44.86V43.53C254.712 43.5733 255.046 43.5934 255.38 43.59H257.15C257.484 43.5937 257.818 43.5736 258.15 43.53L258.19 44.86ZM255.92 49H256.69V48.2H255.92V49ZM263.73 46.6C263.852 47.5481 264.162 48.4624 264.64 49.29C264.066 49.485 263.532 49.7795 263.06 50.16C262.675 49.1975 262.416 48.1891 262.29 47.16L263.73 46.6Z" fill="#3E3A39"/>
<path d="M165.33 71.06C165.674 71.3934 165.973 71.7698 166.22 72.18L165.14 72.92C164.949 72.5255 164.711 72.1561 164.43 71.82L163.82 72.01C163.82 71.86 163.82 71.82 163.82 71.71H163.36V74.58C163.351 74.9144 163.371 75.249 163.42 75.58H162C162.049 75.249 162.069 74.9144 162.06 74.58V71.79H161.38C161.193 71.7961 161.006 71.8128 160.82 71.84L160.71 70.49C160.909 70.5105 161.111 70.5105 161.31 70.49H161.53L161.75 70.21C161.445 69.669 161.086 69.1598 160.68 68.69L161.31 67.52L161.53 67.8C161.771 67.3688 161.956 66.9084 162.08 66.43L163.31 66.92C163.23 67.06 163.22 67.08 163 67.51C162.783 67.9462 162.543 68.3701 162.28 68.78C162.357 68.882 162.427 68.9889 162.49 69.1C162.828 68.5907 163.119 68.0518 163.36 67.49L164.48 68.07L164.11 68.63C163.706 69.2685 163.265 69.8829 162.79 70.47L163.51 70.42C163.43 70.14 163.42 70.09 163.33 69.81L164.02 69.62C164.18 70.08 164.25 70.28 164.35 70.62V69.62C164.655 69.6598 164.963 69.6765 165.27 69.67H167.27L167.38 69.33H165.28C164.98 69.33 164.81 69.33 164.47 69.33C164.868 68.3962 165.144 67.4147 165.29 66.41L166.74 66.52C166.691 66.6311 166.661 66.7493 166.65 66.87H168.37C168.703 66.8913 169.037 66.8913 169.37 66.87C169.354 66.9444 169.334 67.0179 169.31 67.09C169.277 67.3291 169.23 67.5661 169.17 67.8C169.08 68.31 168.89 69.15 168.74 69.68H168.85C169.161 69.688 169.472 69.6713 169.78 69.63V70.92C169.46 70.92 169.41 70.92 168.91 70.92L169.8 71.78C169.455 72.1437 169.08 72.4782 168.68 72.78C169.029 73.2532 169.451 73.6683 169.93 74.01C169.599 74.3897 169.316 74.8097 169.09 75.26C168.796 75.0355 168.537 74.7694 168.32 74.47C168.046 74.0933 167.815 73.6875 167.63 73.26V73.59C167.63 73.68 167.63 73.95 167.63 74V74.47C167.63 74.93 167.57 75.11 167.37 75.27C167.004 75.4824 166.581 75.5734 166.16 75.53C165.95 75.53 165.82 75.53 165.56 75.53C165.525 75.1581 165.445 74.792 165.32 74.44C165.17 74.57 165.04 74.66 164.88 74.78L164.47 75.06L164.17 74.36L163.63 74.5C163.609 73.7171 163.546 72.936 163.44 72.16L164.22 72.02C164.32 72.65 164.34 72.83 164.41 73.5C164.982 73.2046 165.519 72.8457 166.01 72.43L166.27 73.17V70.98L165.33 71.06ZM161.91 72.22C161.896 73.2254 161.806 74.2283 161.64 75.22L160.71 74.75C160.909 73.8739 161.01 72.9784 161.01 72.08L161.91 72.22ZM165.26 71.06H164.46C164.46 71.27 164.53 71.39 164.55 71.47L165.26 71.06ZM166.26 73.72C166.02 73.94 165.77 74.16 165.51 74.37H165.88C166.2 74.37 166.26 74.37 166.26 74.15V73.72ZM167.63 68.5C167.63 68.31 167.63 68.31 167.7 68.11H166.36C166.36 68.25 166.3 68.32 166.24 68.5H167.63ZM167.63 71.06V71.17C167.712 71.4011 167.819 71.6225 167.95 71.83C168.256 71.6001 168.541 71.3423 168.8 71.06H167.63Z" fill="#3E3A39"/>
<path d="M199.3 69.17C199.606 69.194 199.914 69.194 200.22 69.17C200.22 69.41 200.22 69.6 200.22 69.94V71.99C200.22 72.31 200.22 72.5 200.22 72.75H199.33H194.44V73.82C194.44 74.02 194.44 74.09 194.64 74.15C195.379 74.253 196.125 74.2865 196.87 74.25C197.645 74.3403 198.43 74.2757 199.18 74.06C199.33 73.94 199.38 73.64 199.38 72.83C199.865 73.0688 200.385 73.2276 200.92 73.3C200.928 73.798 200.843 74.2931 200.67 74.76C200.34 75.47 199.79 75.58 196.6 75.58C194.6 75.58 193.67 75.48 193.29 75.2C192.91 74.92 192.95 74.79 192.95 74.28V70.41C192.822 70.5083 192.689 70.5985 192.55 70.68C192.406 70.1998 192.183 69.747 191.89 69.34C192.657 68.9583 193.337 68.424 193.89 67.77C194.188 67.43 194.419 67.0364 194.57 66.61L196.19 66.84C196.095 66.978 196.008 67.1216 195.93 67.27H197.36C197.692 67.3034 198.028 67.3034 198.36 67.27L199.19 67.92C199.073 68.0505 198.962 68.1874 198.86 68.33C198.57 68.71 198.37 68.96 198.07 69.33L199.3 69.17ZM196.25 69.17C196.483 68.9407 196.694 68.6896 196.88 68.42H195C194.79 68.6843 194.562 68.9348 194.32 69.17H196.25ZM195.84 70.49H194.44V71.39H195.84V70.49ZM197.22 71.39H198.73V70.49H197.22V71.39Z" fill="#3E3A39"/>
<path d="M226.91 67.77C226.915 67.4356 226.895 67.1014 226.85 66.77H228.48C228.432 67.101 228.412 67.4356 228.42 67.77V69.55H230V68.23C230.017 67.9636 230.017 67.6964 230 67.43H231.56C231.52 67.7316 231.504 68.0358 231.51 68.34V70.23C231.491 70.473 231.491 70.717 231.51 70.96C231.257 70.9423 231.003 70.9423 230.75 70.96H228.41V73.79H230.31V72.41C230.327 72.1369 230.327 71.8631 230.31 71.59H231.86C231.824 71.9221 231.807 72.256 231.81 72.59V74.59C231.802 74.9543 231.822 75.3187 231.87 75.68H230.35V75.27H225.17V75.68H223.64C223.684 75.3184 223.704 74.9543 223.7 74.59V72.65C223.72 72.3169 223.72 71.983 223.7 71.65H225.25C225.25 71.87 225.25 72.08 225.25 72.48V73.84H227.02V71.01H224.84C224.58 70.9918 224.32 70.9918 224.06 71.01C224.06 70.81 224.06 70.57 224.06 70.28V68.4C224.06 68.23 224.06 67.66 224.06 67.48H225.61C225.591 67.7497 225.591 68.0203 225.61 68.29V69.6H227.07L226.91 67.77Z" fill="#3E3A39"/>
<path d="M261.93 74.29C261.93 74.93 261.77 75.29 261.34 75.41C260.878 75.5393 260.398 75.5867 259.92 75.55H259.16C259.112 75.043 258.983 74.5469 258.78 74.08C259.44 74.13 259.78 74.16 260.05 74.16C260.32 74.16 260.46 74.16 260.46 73.94V70.88H259C258.55 70.88 258.09 70.88 257.73 70.88V69.88C257.51 70.18 257.39 70.33 257.14 70.64V74.32C257.128 74.734 257.145 75.1483 257.19 75.56H255.6C255.653 75.1388 255.677 74.7144 255.67 74.29V72.1C255.475 72.3071 255.261 72.4947 255.03 72.66C254.92 72.1253 254.717 71.6141 254.43 71.15C255.397 70.5623 256.206 69.7491 256.79 68.78L257.73 69.46C258.155 69.5016 258.583 69.5216 259.01 69.52H262.2C262.624 69.5273 263.048 69.5073 263.47 69.46V70.92C263.09 70.92 262.67 70.92 262.25 70.92H261.98L261.93 74.29ZM257.77 67.53C257.711 67.5849 257.658 67.6451 257.61 67.71C256.9 68.5018 256.07 69.1767 255.15 69.71C254.98 69.2239 254.723 68.7731 254.39 68.38C255.072 68.0726 255.69 67.6382 256.21 67.1C256.36 66.9524 256.488 66.784 256.59 66.6L257.83 67.52L257.77 67.53ZM258.1 67.02C258.508 67.0675 258.919 67.0876 259.33 67.08H261.82C262.215 67.0783 262.609 67.0516 263 67V68.47C262.615 68.4296 262.227 68.4096 261.84 68.41H259.32C258.909 68.4083 258.499 68.4283 258.09 68.47L258.1 67.02Z" fill="#3E3A39"/>
<path d="M23.36 67.15C29.13 67.4 34.24 65.48 38.99 62.36C43.0982 59.4658 47.7923 57.5097 52.74 56.63C61.36 55.33 69.49 56.48 76.97 61.2C80.55 63.46 84.1 65.83 88.38 66.59C90.38 66.94 92.38 67.1 94.49 67.37V76.14C88.5855 76.3751 82.7406 74.8843 77.67 71.85C76.13 70.94 74.67 69.97 73.07 69.09C63.55 63.66 54 63.69 44.55 69.2C40.55 71.55 36.68 74.26 32.03 75.2C29.18 75.75 26.25 75.84 23.36 76.14V67.15Z" fill="#39AB4B"/>
<path d="M31.57 34.62C36.0366 34.7178 40.416 33.3749 44.06 30.79C47.3471 28.4763 51.1022 26.9128 55.06 26.21C61.94 25.21 68.44 26.09 74.42 29.86C77.28 31.67 80.12 33.56 83.53 34.17C85.12 34.45 86.73 34.58 88.42 34.79V41.79C83.7094 41.9781 79.046 40.7897 75 38.37C73.77 37.65 72.57 36.87 71.32 36.16C63.71 31.83 56.09 31.85 48.53 36.26C45.32 38.13 42.24 40.26 38.53 41.02C36.26 41.47 33.91 41.54 31.6 41.78L31.57 34.62Z" fill="#39AB4B"/>
<path d="M76 47.12C81.77 47.37 86.88 45.46 91.63 42.34C95.7354 39.4388 100.43 37.4789 105.38 36.6C114 35.3 122.13 36.45 129.61 41.17C133.19 43.44 136.74 45.8 141.02 46.56C143.02 46.91 145.02 47.08 147.13 47.34V56.11C141.228 56.3513 135.385 54.86 130.32 51.82C128.78 50.91 127.27 49.94 125.72 49.06C116.19 43.63 106.65 43.66 97.19 49.18C93.19 51.52 89.32 54.18 84.67 55.18C81.83 55.73 78.89 55.82 76 56.12V47.12Z" fill="#39AB4B"/>
<path d="M61.6 80.19H52.84V69.1H61.6V80.19Z" fill="#39AB4B"/>
<path d="M115.93 60.86H107.17V49.77H115.93V60.86Z" fill="#39AB4B"/>
<path d="M63.3 49.77H54.54V38.68H63.3V49.77Z" fill="#39AB4B"/>
</g>
<defs>
<clipPath id="clip0_1_2">
<rect width="300" height="300" fill="white" transform="translate(-6 -97)"/>
</clipPath>
</defs>
</svg>
