<svg id="圖層_1" data-name="圖層 1" xmlns="http://www.w3.org/2000/svg" xmlns:xlink="http://www.w3.org/1999/xlink" viewBox="0 0 288 101"><defs><style>.cls-1{fill:none;}.cls-2{clip-path:url(#clip-path);}.cls-3{fill:#f9f9f9;}</style><clipPath id="clip-path"><rect class="cls-1" x="-6" y="-97" width="300" height="300"/></clipPath></defs><g class="cls-2"><path class="cls-3" d="M163.42,52.66a20.4,20.4,0,0,1-.94,6.06l-1.6-1a14.64,14.64,0,0,0,.94-5.48ZM177.24,44c.83.9,1.56,1.17,3.68,1.37a9.37,9.37,0,0,0-1,2.21,4.43,4.43,0,0,0,1-.08v2.87h-1V56.8c0,2.19-.66,2.6-4.12,2.6h-.58a8.8,8.8,0,0,0-.4-2.27h-1.89v1h-2.46c.05-.6.09-1.35.09-1.85V51a10.44,10.44,0,0,0,1.37,0h3a10.75,10.75,0,0,0,1.39,0,11.85,11.85,0,0,0,0,1.46v4.12c.63,0,.75-.06.75-.44V50.37h-7c-.07,2.31-.13,3.73-.17,4.24a10,10,0,0,1-.81,3.86c-.42.62-1.11.87-2.5.87H166a8.38,8.38,0,0,0-.48-2.81,7.87,7.87,0,0,0,1.19.12h.2l.18-.08a.64.64,0,0,0,.13-.15.36.36,0,0,0,.07-.18,9.15,9.15,0,0,0,.27-1.46l-.83.44a14.88,14.88,0,0,0-.48-2.81l.75-.25a14.11,14.11,0,0,1,.58,2.41,24.64,24.64,0,0,0,.09-2.72H163.3a11,11,0,0,0-1.5.06c.06-.6.08-1.37.08-2.21v-7a17.86,17.86,0,0,0-.1-2.31,19.82,19.82,0,0,0,2.31.08h3.47a20.08,20.08,0,0,0,2.33-.1v2.72a10.35,10.35,0,0,0-1.47-.08h-.19v.85h.23a10.51,10.51,0,0,0,1.12-.06v1.83a7.55,7.55,0,0,0,1.62-.48,3.58,3.58,0,0,0,1.61-1.1h-.54a19,19,0,0,0-2,.11V41.32a16.83,16.83,0,0,0,2.35.13h1v-.62a6.8,6.8,0,0,0-.06-.9l3.12.06a8.78,8.78,0,0,1-.06,1v.5H178a18.05,18.05,0,0,0,2.44-.13V44.2a20.15,20.15,0,0,0-2.06-.11Zm-12.53,8.43a31.37,31.37,0,0,1,.27,4.33v1l-1.31.27c.08-1.29.1-1.94.1-3a20.57,20.57,0,0,0-.1-2.47Zm1-9.47h-1.06v.85h1.06Zm-1.06,2.79v.85h1.06v-.85Zm0,2.79v1h1.06v-1Zm1.23,3.75a27.64,27.64,0,0,1,.5,3.84l-1,.25a25.09,25.09,0,0,0-.36-3.87Zm3.64-4.79a9.39,9.39,0,0,0,1.19.1,8.38,8.38,0,0,0-1.19-1.91v.12a10.51,10.51,0,0,0-1.12-.06h-.23v.85h.19a11.27,11.27,0,0,0,1.16-.06V48.6c-.44,0-.77-.06-1.16-.06h-.19v1h.25a10.09,10.09,0,0,0,1.1,0Zm8.22.1a6.82,6.82,0,0,1-2.77-2,7.26,7.26,0,0,1-2.74,2Zm-4.93,6.95h1.06V53.37h-1.06Z"/><path class="cls-3" d="M205.29,56.43c0,1.41-.35,2.08-1.29,2.45a8.56,8.56,0,0,1-3.1.31h-1.66A10.56,10.56,0,0,0,198.4,56c1.44.12,2.23.18,2.77.18.81,0,.9,0,.9-.47V49h-3.29c-1,0-2,0-2.79.13V47c-.48.64-.73,1-1.29,1.64v8a20.41,20.41,0,0,0,.12,2.71h-3.47a21.33,21.33,0,0,0,.14-2.77v-5a9.56,9.56,0,0,1-1.39,1.23,10,10,0,0,0-1.31-3.29A15.61,15.61,0,0,0,194,44.4l2.06,1.47a26.05,26.05,0,0,0,2.79.13h7a21.41,21.41,0,0,0,2.77-.13v3.21C207.79,49,206.87,49,206,49h-.59ZM196.2,41.67a2.53,2.53,0,0,0-.36.37,21.41,21.41,0,0,1-5.37,4.29,8.78,8.78,0,0,0-1.66-2.89,12.71,12.71,0,0,0,4-2.81,4.57,4.57,0,0,0,.83-1.08l2.7,2Zm.73-1.12a20,20,0,0,0,2.68.12H205a22.8,22.8,0,0,0,2.61-.12v3.2c-.84-.08-1.67-.12-2.54-.12h-5.5a18.52,18.52,0,0,0-2.68.12Z"/><path class="cls-3" d="M217.36,45.6c.48,0,1,.07,2.17.07h.72a24.89,24.89,0,0,0,3.25-6l3.56.94c-.17.27-.17.29-.44.79a30.77,30.77,0,0,1-2.56,4.18c3.79-.1,4.31-.12,6.35-.29a25.37,25.37,0,0,0-2.37-2.6l2.85-1.54A45.31,45.31,0,0,1,236.53,48l-2.89,1.77c-.57-.88-.73-1.15-1.19-1.79-3.77.46-6.28.6-13.22.85a11.16,11.16,0,0,0-1.41.11Zm1.77,13.7a25.67,25.67,0,0,0,.12-2.77V52c0-.71,0-1.43-.1-2.14.46,0,1.1.06,2.14.06h11a20,20,0,0,0,2.15-.06,13.89,13.89,0,0,0-.11,2.14v4.52a23.25,23.25,0,0,0,.13,2.77H231.1v-.88h-8.7v.88Zm3.25-3.79h8.76V52.82h-8.76Z"/><path class="cls-3" d="M247.24,50a10.67,10.67,0,0,0-2.76-2.47l1.91-2.46A11.61,11.61,0,0,1,249,47.34a5.17,5.17,0,0,0,.11-.54l1.35.33a12.41,12.41,0,0,1-.85,3.27,3.52,3.52,0,0,0-1.42-.77,6.81,6.81,0,0,0,.75-2Zm2.11,2.4a54.74,54.74,0,0,1-1.73,6q-.12.32-.21.63a2.84,2.84,0,0,1-.17.49l-2.66-2.22a5.84,5.84,0,0,0,.85-1.69,26.78,26.78,0,0,0,1.4-4.89Zm-.77-7.62a10.73,10.73,0,0,1,1.22.06,4.07,4.07,0,0,1,.4-.43,12.79,12.79,0,0,0-1.08-1l-1.31,1.47a12.82,12.82,0,0,0-3-2.74l2.12-2.21a14,14,0,0,1,2.29,1.92l.44-.61.35.27a10.12,10.12,0,0,0,1-1.79l1.5.92c-.52.75-.94,1.33-1.33,1.85.1.11.22.21.33.31.46-.62.79-1.12,1.29-1.93l1.37.91V41.7h3.5a6.54,6.54,0,0,0,.89-.06V42l.75-1,.34.25a10.88,10.88,0,0,0,1.12-1.73l1.56,1a23.2,23.2,0,0,1-1.52,1.77l.36.35q.75-.89,1.41-1.83l1.54,1a29.7,29.7,0,0,1-2.89,2.83,10,10,0,0,0,1.29-.06c-.13-.29-.17-.4-.33-.73l1.37-.56a11.48,11.48,0,0,1,1.1,2.45l-1.52.79-.12-.48c-.33.05-.44.05-.75.09v3a6.25,6.25,0,0,0,.08,1.14h-2.08a10.88,10.88,0,0,0,.06-1.14V46.3c-.93.07-1.52.11-1.72.15l-.25-1.87a5.69,5.69,0,0,0,.83.06c.33-.29.41-.4.64-.6a9.52,9.52,0,0,0-1.33-1v.15a10.46,10.46,0,0,0-1.12,0h-2.23a8.34,8.34,0,0,0-1,0V42c-.51.65-1.05,1.28-1.62,1.88l1.14-.46a17,17,0,0,1,.77,1.81h3.75v1.31h-3.81V46l-1.2.64-.11-.43a5.7,5.7,0,0,1-.58.06v.81l1.23-.37a13.92,13.92,0,0,1,.64,2.62V46.89c.31,0,.63,0,1.06,0h1.77a5.52,5.52,0,0,0,1,0V49a8.41,8.41,0,0,0,.57-2.31l1.39.5a11.23,11.23,0,0,1-.77,3.12,3.09,3.09,0,0,0-1.19-.86v.92a8.34,8.34,0,0,0-1,0h-2.83v-1l-1.29.44a12.59,12.59,0,0,0-.58-2.71v2.08a11.07,11.07,0,0,0,.06,1.15h-2.1a11.07,11.07,0,0,0,.06-1.15V46.4H250a8.13,8.13,0,0,0-1.2.12Zm3.83,11.84c-.13.34-.28.67-.44,1l-3.21-.48a12.27,12.27,0,0,0,1.59-4.26h9.47v-.5h-8.1a14.3,14.3,0,0,0-1.85.06V50.7a11.41,11.41,0,0,0,1.85.09h9a19.69,19.69,0,0,0,2.17-.09,7.71,7.71,0,0,0-.09,1.36v1a8.05,8.05,0,0,0,.09,1.39h-9.83c-.06.27-.08.29-.12.52h9.34a8.87,8.87,0,0,0,1.36-.08,16.21,16.21,0,0,0-.25,1.68c-.32,2.48-.8,2.83-3.67,2.83a23.22,23.22,0,0,1-2.6-.1,7.17,7.17,0,0,0-.77-2.1,23,23,0,0,0,2.75.2c1,0,1.14-.06,1.18-.79Zm.27-11.86c-.13-.35-.17-.44-.29-.73l-.75.79c.43,0,.6,0,1-.07Zm5.43-3.43h-2.83a8.34,8.34,0,0,0-1,0V40a8.39,8.39,0,0,0,1,.06h1.94a8.39,8.39,0,0,0,1-.06v1.38Zm.08,3.53h-3.81V43.53a8.39,8.39,0,0,0,1,.06h1.77a8.39,8.39,0,0,0,1-.06ZM255.92,49h.77v-.8h-.77Zm7.81-2.4a7.15,7.15,0,0,0,.91,2.69,5.31,5.31,0,0,0-1.58.87,11.93,11.93,0,0,1-.77-3Z"/><path class="cls-3" d="M165.33,71.06a5.7,5.7,0,0,1,.89,1.12l-1.08.74a5.58,5.58,0,0,0-.71-1.1l-.61.19v-.3h-.46v2.87a5.6,5.6,0,0,0,.06,1H162a5.6,5.6,0,0,0,.06-1V71.79h-.68a5.29,5.29,0,0,0-.56,0l-.11-1.35a3,3,0,0,0,.6,0h.22l.22-.28a8.87,8.87,0,0,0-1.07-1.52l.63-1.17.22.28a5.61,5.61,0,0,0,.55-1.37l1.23.49c-.08.14-.09.16-.31.59a14.33,14.33,0,0,1-.72,1.27,2.2,2.2,0,0,1,.21.32,10,10,0,0,0,.87-1.61l1.12.58-.37.56a19.89,19.89,0,0,1-1.32,1.84l.72,0c-.08-.28-.09-.33-.18-.61l.69-.19c.16.46.23.66.33,1v-1a5.62,5.62,0,0,0,.92,0h2l.11-.34h-2.91a11.86,11.86,0,0,0,.82-2.92l1.45.11a1.06,1.06,0,0,0-.09.35h1.72a8.34,8.34,0,0,0,1,0l-.06.22a5.57,5.57,0,0,1-.14.71c-.09.51-.28,1.35-.43,1.88h.11a5.8,5.8,0,0,0,.93-.05v1.29h-.87l.89.86a8.89,8.89,0,0,1-1.12,1A5.61,5.61,0,0,0,169.93,74a6.22,6.22,0,0,0-.84,1.25,3.85,3.85,0,0,1-.77-.79,6.88,6.88,0,0,1-.69-1.21v1.21c0,.46-.06.64-.26.8a2.05,2.05,0,0,1-1.21.26h-.6a4.52,4.52,0,0,0-.24-1.09c-.15.13-.28.22-.44.34l-.41.28-.3-.7-.54.14a20.5,20.5,0,0,0-.19-2.34l.78-.14c.1.63.12.81.19,1.48a8.59,8.59,0,0,0,1.6-1.07l.26.74V71Zm-3.42,1.16a18.8,18.8,0,0,1-.27,3l-.93-.47a12,12,0,0,0,.3-2.67Zm3.35-1.16h-.8a1.19,1.19,0,0,0,.09.41Zm1,2.66c-.24.22-.49.44-.75.65h.37c.32,0,.38,0,.38-.22Zm1.37-5.22a.79.79,0,0,1,.07-.39h-1.34a1.21,1.21,0,0,1-.12.39Zm0,2.56v.11a3.35,3.35,0,0,0,.32.66,6.22,6.22,0,0,0,.85-.77Z"/><path class="cls-3" d="M199.3,69.17a7.06,7.06,0,0,0,.92,0v3.58h-5.78v1.07c0,.2,0,.27.2.33a11.86,11.86,0,0,0,2.23.1,5.81,5.81,0,0,0,2.31-.19c.15-.12.2-.42.2-1.23a4.91,4.91,0,0,0,1.54.47,4,4,0,0,1-.25,1.46c-.33.71-.88.82-4.07.82-2,0-2.93-.1-3.31-.38s-.34-.41-.34-.92V70.41a3.51,3.51,0,0,1-.4.27,4.53,4.53,0,0,0-.66-1.34,6.25,6.25,0,0,0,2-1.57,3.48,3.48,0,0,0,.68-1.16l1.62.23c-.09.14-.18.28-.26.43h1.43a5.57,5.57,0,0,0,1,0l.83.65a4.23,4.23,0,0,0-.33.41c-.29.38-.49.63-.79,1Zm-3.05,0a5.69,5.69,0,0,0,.63-.75H195a9.59,9.59,0,0,1-.68.75Zm-.41,1.32h-1.4v.9h1.4Zm1.38.9h1.51v-.9h-1.51Z"/><path class="cls-3" d="M226.91,67.77a6.71,6.71,0,0,0-.06-1h1.63a5.6,5.6,0,0,0-.06,1v1.78H230V68.23a5.34,5.34,0,0,0,0-.8h1.56a5.56,5.56,0,0,0-.05.91v1.89a4.45,4.45,0,0,0,0,.73,4.82,4.82,0,0,0-.76,0h-2.34v2.83h1.9V72.41a5.61,5.61,0,0,0,0-.82h1.55a8.37,8.37,0,0,0-.05,1v2a6.64,6.64,0,0,0,.06,1.09h-1.52v-.41h-5.18v.41h-1.53a10,10,0,0,0,.06-1.09V72.65a8.34,8.34,0,0,0,0-1h1.55v2.19H227V71h-2.18a5.08,5.08,0,0,0-.78,0V67.48h1.55a5.47,5.47,0,0,0,0,.81V69.6h1.46Z"/><path class="cls-3" d="M261.93,74.29c0,.64-.16,1-.59,1.12a4,4,0,0,1-1.42.14h-.76a5,5,0,0,0-.38-1.47c.66,0,1,.08,1.27.08s.41,0,.41-.22V70.88h-2.73v-1c-.22.3-.34.45-.59.76v3.68a8.57,8.57,0,0,0,.05,1.24H255.6a9,9,0,0,0,.07-1.27V72.1a4.28,4.28,0,0,1-.64.56,4.59,4.59,0,0,0-.6-1.51,7,7,0,0,0,2.36-2.37l.94.68c.42,0,.85.06,1.28.06h3.19a9,9,0,0,0,1.27-.06v1.46H262Zm-4.16-6.76a1.37,1.37,0,0,0-.16.18,10.09,10.09,0,0,1-2.46,2,4.18,4.18,0,0,0-.76-1.33,5.94,5.94,0,0,0,1.82-1.28,2.28,2.28,0,0,0,.38-.5l1.24.92Zm.33-.51a8.45,8.45,0,0,0,1.23.06h2.49A9.36,9.36,0,0,0,263,67v1.47a11.27,11.27,0,0,0-1.16-.06h-2.52q-.61,0-1.23.06Z"/><path class="cls-3" d="M23.36,67.15c5.77.25,10.88-1.67,15.63-4.79a34.36,34.36,0,0,1,13.75-5.73c8.62-1.3,16.75-.15,24.23,4.57,3.58,2.26,7.13,4.63,11.41,5.39,2,.35,4,.51,6.11.78v8.77a30.4,30.4,0,0,1-16.82-4.29c-1.54-.91-3-1.88-4.6-2.76-9.52-5.43-19.07-5.4-28.52.11-4,2.35-7.87,5.06-12.52,6-2.85.55-5.78.64-8.67.94Z"/><path class="cls-3" d="M31.57,34.62a20.8,20.8,0,0,0,12.49-3.83,27.47,27.47,0,0,1,11-4.58c6.88-1,13.38-.12,19.36,3.65,2.86,1.81,5.7,3.7,9.11,4.31,1.59.28,3.2.41,4.89.62v7A24.25,24.25,0,0,1,75,38.37c-1.23-.72-2.43-1.5-3.68-2.21-7.61-4.33-15.23-4.31-22.79.1-3.21,1.87-6.29,4-10,4.76-2.27.45-4.62.52-6.93.76Z"/><path class="cls-3" d="M76,47.12c5.77.25,10.88-1.66,15.63-4.78a34.24,34.24,0,0,1,13.75-5.74c8.62-1.3,16.75-.15,24.23,4.57,3.58,2.27,7.13,4.63,11.41,5.39,2,.35,4,.52,6.11.78v8.77a30.27,30.27,0,0,1-16.81-4.29c-1.54-.91-3-1.88-4.6-2.76-9.53-5.43-19.07-5.4-28.53.12-4,2.34-7.87,5-12.52,6-2.84.55-5.78.64-8.67.94Z"/><path class="cls-3" d="M61.6,80.19H52.84V69.1H61.6Z"/><path class="cls-3" d="M115.93,60.86h-8.76V49.77h8.76Z"/><path class="cls-3" d="M63.3,49.77H54.54V38.68H63.3Z"/></g></svg>