<svg width="265" height="110" viewBox="0 0 265 110" fill="none" xmlns="http://www.w3.org/2000/svg">
<path d="M146.42 57.66C146.415 59.7159 146.098 61.7591 145.48 63.72L143.88 62.72C144.544 60.9712 144.864 59.1102 144.82 57.24L146.42 57.66ZM160.24 49C161.07 49.9 161.8 50.17 163.92 50.37C163.492 51.0602 163.156 51.8031 162.92 52.58C163.29 52.58 163.5 52.58 163.92 52.5V55.37C163.51 55.37 163.24 55.37 162.92 55.37V61.8C162.92 63.99 162.26 64.4 158.8 64.4C158.7 64.4 158.47 64.4 158.22 64.4C158.189 63.6288 158.054 62.8654 157.82 62.13H155.93V63.13H153.47C153.52 62.53 153.56 61.78 153.56 61.28V57.47C153.56 56.72 153.56 56.53 153.56 56.01C154.016 56.0371 154.474 56.0371 154.93 56.01H157.93C158.393 56.0379 158.857 56.0379 159.32 56.01C159.293 56.4963 159.293 56.9837 159.32 57.47V61.59C159.95 61.59 160.07 61.53 160.07 61.15V55.37H154.78C153.97 55.37 153.56 55.37 153.04 55.37C152.97 57.68 152.91 59.1 152.87 59.61C152.859 60.9377 152.584 62.2499 152.06 63.47C151.64 64.09 150.95 64.34 149.56 64.34H149C149.001 63.3828 148.839 62.4325 148.52 61.53C148.914 61.5955 149.311 61.6356 149.71 61.65C149.775 61.6615 149.842 61.6599 149.906 61.6455C149.971 61.6311 150.032 61.604 150.085 61.5659C150.139 61.5278 150.185 61.4793 150.22 61.4234C150.255 61.3675 150.279 61.3051 150.29 61.24C150.424 60.7625 150.514 60.2739 150.56 59.78L149.73 60.22C149.656 59.2706 149.496 58.33 149.25 57.41L150 57.16C150.264 57.9446 150.458 58.7511 150.58 59.57C150.656 58.6655 150.686 57.7576 150.67 56.85H146.3C145.67 56.85 145.23 56.85 144.8 56.91C144.86 56.31 144.88 55.54 144.88 54.7V47.7C144.897 46.9286 144.863 46.157 144.78 45.39C145.548 45.4588 146.319 45.4855 147.09 45.47H150.56C151.338 45.483 152.116 45.4496 152.89 45.37V48.09C152.403 48.0283 151.911 48.0016 151.42 48.01H151.23V48.86H151.46C151.834 48.8616 152.208 48.8416 152.58 48.8V50.63C153.136 50.5303 153.679 50.3693 154.2 50.15C154.826 49.9361 155.383 49.5559 155.81 49.05H155.27C154.602 49.0483 153.934 49.0851 153.27 49.16V46.32C154.049 46.4201 154.835 46.4635 155.62 46.45H156.62C156.62 46.18 156.62 46.01 156.62 45.83C156.624 45.5289 156.604 45.2279 156.56 44.93L159.68 44.99C159.68 45.2 159.68 45.35 159.62 45.99C159.62 46.16 159.62 46.26 159.62 46.49H161C161.815 46.504 162.631 46.4606 163.44 46.36V49.2C162.756 49.1287 162.068 49.092 161.38 49.09L160.24 49ZM147.71 57.43C147.895 58.8659 147.985 60.3123 147.98 61.76C147.98 61.99 147.98 62.34 147.98 62.76L146.67 63.03C146.75 61.74 146.77 61.09 146.77 60.03C146.77 58.97 146.77 58.64 146.67 57.56L147.71 57.43ZM148.71 47.96H147.65V48.81H148.71V47.96ZM147.65 50.75V51.6H148.71V50.75H147.65ZM147.65 53.54V54.54H148.71V53.54H147.65ZM148.88 57.29C149.137 58.5566 149.304 59.8398 149.38 61.13L148.38 61.38C148.362 60.0825 148.242 58.7885 148.02 57.51L148.88 57.29ZM152.52 52.5C152.914 52.5557 153.312 52.5891 153.71 52.6C153.402 51.9122 153.002 51.2696 152.52 50.69V50.81C152.148 50.7709 151.774 50.7508 151.4 50.75H151.17V51.6H151.36C151.747 51.6021 152.135 51.582 152.52 51.54V53.6C152.08 53.6 151.75 53.54 151.36 53.54H151.17V54.54H151.42C151.786 54.5615 152.154 54.5615 152.52 54.54V52.5ZM160.74 52.6C159.664 52.1757 158.711 51.488 157.97 50.6C157.228 51.4743 156.289 52.1597 155.23 52.6H160.74ZM155.81 59.55H156.87V58.37H155.81V59.55Z" fill="#3E3A39"/>
<path d="M188.29 61.43C188.29 62.84 187.94 63.51 187 63.88C185.994 64.1714 184.944 64.2765 183.9 64.19H182.24C182.13 63.0793 181.847 61.9927 181.4 60.97C182.84 61.09 183.63 61.15 184.17 61.15C184.98 61.15 185.07 61.15 185.07 60.68V54H181.78C180.78 54 179.78 54.05 178.99 54.13V52C178.51 52.64 178.26 53 177.7 53.64V61.69C177.682 62.595 177.722 63.5002 177.82 64.4H174.35C174.456 63.4806 174.503 62.5554 174.49 61.63V56.63C174.067 57.0832 173.601 57.4951 173.1 57.86C172.86 56.6949 172.417 55.5812 171.79 54.57C173.914 53.2868 175.7 51.5141 177 49.4L179.06 50.87C179.987 50.9622 180.918 51.0056 181.85 51H188.85C189.775 51.0181 190.701 50.9747 191.62 50.87V54.08C190.79 54 189.87 53.95 188.96 53.95H188.37L188.29 61.43ZM179.2 46.67C179.067 46.7804 178.947 46.9044 178.84 47.04C177.291 48.7476 175.478 50.1959 173.47 51.33C173.108 50.2686 172.545 49.2872 171.81 48.44C173.312 47.7692 174.67 46.8151 175.81 45.63C176.136 45.3112 176.416 44.9476 176.64 44.55L179.34 46.55L179.2 46.67ZM179.93 45.55C180.82 45.6457 181.715 45.6857 182.61 45.67H188C188.872 45.6814 189.743 45.6413 190.61 45.55V48.75C189.77 48.67 188.94 48.63 188.07 48.63H182.57C181.57 48.63 180.68 48.63 179.89 48.75L179.93 45.55Z" fill="#3E3A39"/>
<path d="M200.36 50.6C200.84 50.6 201.36 50.67 202.53 50.67H203.25C204.605 48.8296 205.699 46.8105 206.5 44.67L210.06 45.61C209.89 45.88 209.89 45.9 209.62 46.4C208.879 47.8591 208.023 49.2568 207.06 50.58C210.85 50.48 211.37 50.46 213.41 50.29C212.681 49.3693 211.889 48.5006 211.04 47.69L213.89 46.15C215.988 48.2515 217.877 50.5524 219.53 53.02L216.64 54.79C216.07 53.91 215.91 53.64 215.45 53C211.68 53.46 209.17 53.6 202.23 53.85C201.758 53.8562 201.287 53.8929 200.82 53.96L200.36 50.6ZM202.13 64.3C202.217 63.3793 202.257 62.4548 202.25 61.53V57C202.254 56.2854 202.22 55.5711 202.15 54.86C202.61 54.86 203.25 54.92 204.29 54.92H215.29C216.29 54.92 216.96 54.92 217.44 54.86C217.349 55.5695 217.312 56.2849 217.33 57V61.52C217.319 62.4451 217.363 63.37 217.46 64.29H214.1V63.41H205.4V64.29L202.13 64.3ZM205.38 60.51H214.14V57.82H205.38V60.51Z" fill="#3E3A39"/>
<path d="M230.24 55C229.469 54.0242 228.535 53.1886 227.48 52.53L229.39 50.07C230.372 50.6914 231.255 51.4566 232.01 52.34C232.057 52.1623 232.094 51.982 232.12 51.8L233.47 52.13C233.335 53.2533 233.049 54.3533 232.62 55.4C232.212 55.0376 231.726 54.7741 231.2 54.63C231.553 54.0067 231.806 53.3318 231.95 52.63L230.24 55ZM232.35 57.4C231.888 59.4313 231.31 61.4346 230.62 63.4C230.538 63.6058 230.468 63.8161 230.41 64.03C230.367 64.1977 230.31 64.3616 230.24 64.52L227.58 62.3C227.953 61.7865 228.24 61.2157 228.43 60.61C229.047 59.027 229.516 57.3899 229.83 55.72L232.35 57.4ZM231.58 49.78C231.97 49.78 232.1 49.78 232.8 49.84C232.922 49.6865 233.056 49.5427 233.2 49.41C232.86 49.0556 232.499 48.7217 232.12 48.41L230.81 49.88C229.965 48.8106 228.951 47.8853 227.81 47.14L229.93 44.93C230.758 45.488 231.526 46.1316 232.22 46.85L232.66 46.24L233.01 46.51C233.4 45.9467 233.735 45.3473 234.01 44.72L235.51 45.64C234.99 46.39 234.57 46.97 234.18 47.49C234.284 47.5991 234.395 47.7026 234.51 47.8C234.97 47.18 235.3 46.68 235.8 45.87L237.17 46.78V46.7C237.44 46.7 237.67 46.7 238.23 46.7H240.67C240.968 46.7034 241.265 46.6834 241.56 46.64V47L242.31 46L242.65 46.25C243.078 45.7104 243.453 45.1311 243.77 44.52L245.33 45.52C244.81 46.16 244.33 46.77 243.81 47.29L244.17 47.64C244.67 47.054 245.141 46.4432 245.58 45.81L247.12 46.81C246.222 47.8178 245.256 48.7633 244.23 49.64C244.75 49.64 244.9 49.64 245.52 49.58C245.39 49.29 245.35 49.18 245.19 48.85L246.56 48.29C247.024 49.0593 247.393 49.882 247.66 50.74L246.14 51.53L246.02 51.05C245.69 51.1 245.58 51.1 245.27 51.14V54.14C245.262 54.5217 245.288 54.9033 245.35 55.28H243.27C243.313 54.9015 243.333 54.5209 243.33 54.14V51.3C242.4 51.37 241.81 51.41 241.61 51.45L241.36 49.58C241.634 49.624 241.912 49.6441 242.19 49.64C242.52 49.35 242.6 49.24 242.83 49.04C242.419 48.6534 241.974 48.3053 241.5 48V48.15C241.127 48.1254 240.753 48.1254 240.38 48.15H238.15C237.817 48.128 237.483 48.128 237.15 48.15V47C236.643 47.6548 236.103 48.2823 235.53 48.88L236.67 48.42C236.964 49.007 237.221 49.6114 237.44 50.23C237.84 50.23 238.11 50.23 238.44 50.23H240.19C240.55 50.23 240.82 50.23 241.19 50.23V51.54C240.78 51.54 240.51 51.54 240.19 51.54H238.38C238.07 51.54 237.82 51.54 237.38 51.54V51L236.18 51.64L236.07 51.21C235.878 51.242 235.684 51.262 235.49 51.27V52.08L236.72 51.71C237.016 52.5611 237.23 53.4384 237.36 54.33V52.89C237.36 52.41 237.36 52.18 237.36 51.89C237.67 51.89 237.99 51.94 238.42 51.94H240.19C240.63 51.94 240.94 51.94 241.19 51.89C241.19 52.14 241.19 52.29 241.19 52.89V54C241.491 53.2618 241.683 52.4836 241.76 51.69L243.15 52.19C243.044 53.2616 242.785 54.3123 242.38 55.31C242.057 54.9333 241.649 54.6386 241.19 54.45C241.19 54.97 241.19 55.08 241.19 55.37C240.857 55.3473 240.523 55.3473 240.19 55.37H238.42C237.9 55.37 237.67 55.37 237.36 55.37C237.36 55 237.36 54.91 237.36 54.37L236.07 54.81C235.977 53.888 235.783 52.9792 235.49 52.1V54.18C235.486 54.5642 235.506 54.9483 235.55 55.33H233.45C233.493 54.9483 233.514 54.5642 233.51 54.18V51.4C233.31 51.4 233.14 51.4 233.01 51.4C232.608 51.4114 232.207 51.4515 231.81 51.52L231.58 49.78ZM235.41 61.62C235.281 61.9608 235.134 62.2946 234.97 62.62L231.76 62.14C232.552 60.832 233.091 59.387 233.35 57.88C233.64 57.88 234.03 57.88 234.53 57.88H242.82V57.38H234.72C234.103 57.3612 233.485 57.3813 232.87 57.44V55.7C233.484 55.7751 234.102 55.8052 234.72 55.79H243.72C244.444 55.7986 245.169 55.7686 245.89 55.7C245.821 56.1499 245.791 56.6049 245.8 57.06V58.06C245.786 58.5251 245.816 58.9906 245.89 59.45C245.24 59.45 244.89 59.45 243.89 59.45H236.06C236 59.72 235.98 59.74 235.94 59.97H245.28C245.735 59.9757 246.189 59.9489 246.64 59.89C246.527 60.4451 246.443 61.0059 246.39 61.57C246.07 64.05 245.59 64.4 242.72 64.4C241.89 64.4 241.02 64.4 240.12 64.3C239.975 63.5641 239.715 62.8555 239.35 62.2C240.262 62.3205 241.18 62.3873 242.1 62.4C243.1 62.4 243.24 62.34 243.28 61.61L235.41 61.62ZM235.68 49.76C235.55 49.41 235.51 49.32 235.39 49.03L234.64 49.82C235.07 49.79 235.24 49.79 235.68 49.75V49.76ZM241.11 46.33C240.8 46.33 240.53 46.33 240.28 46.33H238.28C237.947 46.3109 237.613 46.3109 237.28 46.33V44.95C237.612 44.9921 237.946 45.0121 238.28 45.01H240.22C240.554 45.0127 240.888 44.9927 241.22 44.95V46.33H241.11ZM241.19 49.86C240.8 49.86 240.48 49.86 240.19 49.86H238.38C238.09 49.86 237.8 49.86 237.38 49.86V48.53C237.712 48.5733 238.046 48.5934 238.38 48.59H240.15C240.484 48.5937 240.818 48.5736 241.15 48.53L241.19 49.86ZM238.92 54H239.69V53.2H238.92V54ZM246.73 51.6C246.852 52.5481 247.162 53.4624 247.64 54.29C247.066 54.485 246.531 54.7795 246.06 55.16C245.675 54.1975 245.416 53.1891 245.29 52.16L246.73 51.6Z" fill="#3E3A39"/>
<path d="M148.33 76.06C148.674 76.3934 148.973 76.7698 149.22 77.18L148.14 77.92C147.949 77.5255 147.711 77.1561 147.43 76.82L146.82 77.01C146.82 76.86 146.82 76.82 146.82 76.71H146.36V79.58C146.351 79.9144 146.371 80.249 146.42 80.58H145C145.049 80.249 145.069 79.9144 145.06 79.58V76.79H144.38C144.193 76.7961 144.006 76.8128 143.82 76.84L143.71 75.49C143.909 75.5105 144.111 75.5105 144.31 75.49H144.53L144.75 75.21C144.445 74.669 144.086 74.1598 143.68 73.69L144.31 72.52L144.53 72.8C144.771 72.3688 144.956 71.9084 145.08 71.43L146.31 71.92C146.23 72.06 146.22 72.08 146 72.51C145.783 72.9462 145.543 73.3701 145.28 73.78C145.357 73.882 145.427 73.9889 145.49 74.1C145.828 73.5907 146.119 73.0518 146.36 72.49L147.48 73.07L147.11 73.63C146.706 74.2685 146.265 74.8829 145.79 75.47L146.51 75.42C146.43 75.14 146.42 75.09 146.33 74.81L147.02 74.62C147.18 75.08 147.25 75.28 147.35 75.62V74.62C147.655 74.6598 147.963 74.6765 148.27 74.67H150.27L150.38 74.33H148.28C147.98 74.33 147.81 74.33 147.47 74.33C147.868 73.3962 148.144 72.4147 148.29 71.41L149.74 71.52C149.691 71.6311 149.661 71.7493 149.65 71.87H151.37C151.703 71.8913 152.037 71.8913 152.37 71.87C152.354 71.9444 152.334 72.0179 152.31 72.09C152.277 72.3291 152.23 72.5661 152.17 72.8C152.08 73.31 151.89 74.15 151.74 74.68H151.85C152.161 74.688 152.472 74.6713 152.78 74.63V75.92C152.46 75.92 152.41 75.92 151.91 75.92L152.8 76.78C152.455 77.1437 152.08 77.4782 151.68 77.78C152.029 78.2532 152.451 78.6683 152.93 79.01C152.599 79.3897 152.316 79.8097 152.09 80.26C151.796 80.0355 151.537 79.7694 151.32 79.47C151.046 79.0933 150.815 78.6875 150.63 78.26V78.59C150.63 78.68 150.63 78.95 150.63 79V79.47C150.63 79.93 150.57 80.11 150.37 80.27C150.004 80.4824 149.581 80.5734 149.16 80.53C148.95 80.53 148.82 80.53 148.56 80.53C148.525 80.1581 148.445 79.792 148.32 79.44C148.17 79.57 148.04 79.66 147.88 79.78L147.47 80.06L147.17 79.36L146.63 79.5C146.609 78.7171 146.546 77.936 146.44 77.16L147.22 77.02C147.32 77.65 147.34 77.83 147.41 78.5C147.982 78.2046 148.519 77.8457 149.01 77.43L149.27 78.17V75.98L148.33 76.06ZM144.91 77.22C144.896 78.2254 144.806 79.2283 144.64 80.22L143.71 79.75C143.909 78.8739 144.01 77.9784 144.01 77.08L144.91 77.22ZM148.26 76.06H147.46C147.46 76.27 147.53 76.39 147.55 76.47L148.26 76.06ZM149.26 78.72C149.02 78.94 148.77 79.16 148.51 79.37H148.88C149.2 79.37 149.26 79.37 149.26 79.15V78.72ZM150.63 73.5C150.63 73.31 150.63 73.31 150.7 73.11H149.36C149.36 73.25 149.3 73.32 149.24 73.5H150.63ZM150.63 76.06V76.17C150.712 76.4011 150.819 76.6225 150.95 76.83C151.256 76.6001 151.541 76.3423 151.8 76.06H150.63Z" fill="#3E3A39"/>
<path d="M182.3 74.17C182.606 74.194 182.914 74.194 183.22 74.17C183.22 74.41 183.22 74.6 183.22 74.94V76.99C183.22 77.31 183.22 77.5 183.22 77.75H182.33H177.44V78.82C177.44 79.02 177.44 79.09 177.64 79.15C178.379 79.253 179.125 79.2865 179.87 79.25C180.645 79.3403 181.43 79.2757 182.18 79.06C182.33 78.94 182.38 78.64 182.38 77.83C182.865 78.0688 183.385 78.2276 183.92 78.3C183.928 78.798 183.844 79.2931 183.67 79.76C183.34 80.47 182.79 80.58 179.6 80.58C177.6 80.58 176.67 80.48 176.29 80.2C175.91 79.92 175.95 79.79 175.95 79.28V75.41C175.822 75.5083 175.689 75.5985 175.55 75.68C175.406 75.1998 175.183 74.747 174.89 74.34C175.657 73.9583 176.337 73.424 176.89 72.77C177.188 72.43 177.419 72.0364 177.57 71.61L179.19 71.84C179.095 71.978 179.008 72.1216 178.93 72.27H180.36C180.693 72.3034 181.028 72.3034 181.36 72.27L182.19 72.92C182.073 73.0505 181.962 73.1874 181.86 73.33C181.57 73.71 181.37 73.96 181.07 74.33L182.3 74.17ZM179.25 74.17C179.484 73.9407 179.694 73.6896 179.88 73.42H178C177.79 73.6843 177.562 73.9348 177.32 74.17H179.25ZM178.84 75.49H177.44V76.39H178.84V75.49ZM180.22 76.39H181.73V75.49H180.22V76.39Z" fill="#3E3A39"/>
<path d="M209.91 72.77C209.915 72.4356 209.895 72.1014 209.85 71.77H211.48C211.432 72.101 211.412 72.4356 211.42 72.77V74.55H213V73.23C213.017 72.9636 213.017 72.6964 213 72.43H214.56C214.52 72.7316 214.504 73.0358 214.51 73.34V75.23C214.491 75.473 214.491 75.717 214.51 75.96C214.257 75.9423 214.003 75.9423 213.75 75.96H211.41V78.79H213.31V77.41C213.327 77.1369 213.327 76.8631 213.31 76.59H214.86C214.824 76.9221 214.807 77.256 214.81 77.59V79.59C214.802 79.9543 214.822 80.3187 214.87 80.68H213.35V80.27H208.17V80.68H206.64C206.684 80.3184 206.704 79.9543 206.7 79.59V77.65C206.72 77.3169 206.72 76.983 206.7 76.65H208.25C208.25 76.87 208.25 77.08 208.25 77.48V78.84H210.02V76.01H207.84C207.58 75.9918 207.32 75.9918 207.06 76.01C207.06 75.81 207.06 75.57 207.06 75.28V73.4C207.06 73.23 207.06 72.66 207.06 72.48H208.61C208.591 72.7497 208.591 73.0203 208.61 73.29V74.6H210.07L209.91 72.77Z" fill="#3E3A39"/>
<path d="M244.93 79.29C244.93 79.93 244.77 80.29 244.34 80.41C243.878 80.5393 243.398 80.5867 242.92 80.55H242.16C242.112 80.043 241.983 79.5469 241.78 79.08C242.44 79.13 242.78 79.16 243.05 79.16C243.32 79.16 243.46 79.16 243.46 78.94V75.88H242C241.55 75.88 241.09 75.88 240.73 75.88V74.88C240.51 75.18 240.39 75.33 240.14 75.64V79.32C240.128 79.734 240.145 80.1483 240.19 80.56H238.6C238.653 80.1388 238.677 79.7144 238.67 79.29V77.1C238.475 77.3071 238.261 77.4947 238.03 77.66C237.92 77.1253 237.717 76.6141 237.43 76.15C238.397 75.5623 239.206 74.7491 239.79 73.78L240.73 74.46C241.155 74.5016 241.583 74.5216 242.01 74.52H245.2C245.624 74.5273 246.048 74.5073 246.47 74.46V75.92C246.09 75.92 245.67 75.92 245.25 75.92H244.98L244.93 79.29ZM240.77 72.53C240.711 72.5849 240.658 72.6451 240.61 72.71C239.9 73.5018 239.07 74.1767 238.15 74.71C237.98 74.2239 237.723 73.7731 237.39 73.38C238.072 73.0726 238.69 72.6382 239.21 72.1C239.36 71.9524 239.488 71.784 239.59 71.6L240.83 72.52L240.77 72.53ZM241.1 72.02C241.508 72.0675 241.919 72.0876 242.33 72.08H244.82C245.215 72.0783 245.609 72.0516 246 72V73.47C245.615 73.4296 245.227 73.4096 244.84 73.41H242.32C241.909 73.4083 241.499 73.4283 241.09 73.47L241.1 72.02Z" fill="#3E3A39"/>
<path d="M6.35999 72.15C12.13 72.4 17.24 70.48 21.99 67.36C26.0982 64.4658 30.7922 62.5097 35.74 61.63C44.36 60.33 52.49 61.48 59.97 66.2C63.55 68.46 67.1 70.83 71.38 71.59C73.38 71.94 75.38 72.1 77.49 72.37V81.14C71.5855 81.3751 65.7405 79.8843 60.67 76.85C59.13 75.94 57.67 74.97 56.07 74.09C46.55 68.66 37 68.69 27.55 74.2C23.55 76.55 19.68 79.26 15.03 80.2C12.18 80.75 9.24999 80.84 6.35999 81.14V72.15Z" fill="#39AB4B"/>
<path d="M14.57 39.62C19.0366 39.7178 23.416 38.3749 27.06 35.79C30.3471 33.4763 34.1022 31.9128 38.06 31.21C44.94 30.21 51.44 31.09 57.42 34.86C60.28 36.67 63.12 38.56 66.53 39.17C68.12 39.45 69.73 39.58 71.42 39.79V46.79C66.7094 46.9781 62.046 45.7897 58 43.37C56.77 42.65 55.57 41.87 54.32 41.16C46.71 36.83 39.09 36.85 31.53 41.26C28.32 43.13 25.24 45.26 21.53 46.02C19.26 46.47 16.91 46.54 14.6 46.78L14.57 39.62Z" fill="#39AB4B"/>
<path d="M59 52.12C64.77 52.37 69.88 50.46 74.63 47.34C78.7354 44.4388 83.4303 42.4789 88.38 41.6C97 40.3 105.13 41.45 112.61 46.17C116.19 48.44 119.74 50.8 124.02 51.56C126.02 51.91 128.02 52.08 130.13 52.34V61.11C124.228 61.3513 118.385 59.86 113.32 56.82C111.78 55.91 110.27 54.94 108.72 54.06C99.19 48.63 89.65 48.66 80.19 54.18C76.19 56.52 72.32 59.18 67.67 60.18C64.83 60.73 61.89 60.82 59 61.12V52.12Z" fill="#39AB4B"/>
<path d="M44.6 85.19H35.84V74.1H44.6V85.19Z" fill="#39AB4B"/>
<path d="M98.93 65.86H90.17V54.77H98.93V65.86Z" fill="#39AB4B"/>
<path d="M46.3 54.77H37.54V43.68H46.3V54.77Z" fill="#39AB4B"/>
</svg>
