<svg id="圖層_1" data-name="圖層 1" xmlns="http://www.w3.org/2000/svg" viewBox="0 0 300 300"><defs><style>.cls-1{fill:#3e3a39;}.cls-2{fill:#39ab4b;}</style></defs><path class="cls-1" d="M169.42,149.66a20.35,20.35,0,0,1-.94,6.06l-1.6-1a14.48,14.48,0,0,0,.94-5.48ZM183.24,141c.83.9,1.56,1.17,3.68,1.37a9.37,9.37,0,0,0-1,2.21c.37,0,.58,0,1-.08v2.87c-.41,0-.68,0-1,0v6.43c0,2.19-.66,2.6-4.12,2.6-.1,0-.33,0-.58,0a8.62,8.62,0,0,0-.4-2.27h-1.89v1h-2.46c.05-.6.09-1.35.09-1.85v-3.81c0-.75,0-.94,0-1.46a11.56,11.56,0,0,0,1.37,0h3a11.57,11.57,0,0,0,1.39,0,13.08,13.08,0,0,0,0,1.46v4.12c.63,0,.75-.06.75-.44v-5.78h-5.29c-.81,0-1.22,0-1.74,0-.07,2.31-.13,3.73-.17,4.24a10,10,0,0,1-.81,3.86c-.42.62-1.11.87-2.5.87H172a8.4,8.4,0,0,0-.48-2.81,9.29,9.29,0,0,0,1.19.12.5.5,0,0,0,.58-.41,8.17,8.17,0,0,0,.27-1.46l-.83.44a15.57,15.57,0,0,0-.48-2.81l.75-.25a14,14,0,0,1,.58,2.41,26.76,26.76,0,0,0,.09-2.72h-4.37c-.63,0-1.07,0-1.5.06.06-.6.08-1.37.08-2.21v-7a17.86,17.86,0,0,0-.1-2.31,21.13,21.13,0,0,0,2.31.08h3.47a19.58,19.58,0,0,0,2.33-.1v2.72a10.3,10.3,0,0,0-1.47-.08h-.19v.85h.23a9.71,9.71,0,0,0,1.12-.06v1.83a7.65,7.65,0,0,0,1.62-.48,3.65,3.65,0,0,0,1.61-1.1h-.54a17.44,17.44,0,0,0-2,.11v-2.84a16.25,16.25,0,0,0,2.35.13h1c0-.27,0-.44,0-.62a5.71,5.71,0,0,0-.06-.9l3.12.06c0,.21,0,.36-.06,1,0,.17,0,.27,0,.5H184a17.37,17.37,0,0,0,2.44-.13v2.84a20.46,20.46,0,0,0-2.06-.11Zm-12.53,8.43a33.12,33.12,0,0,1,.27,4.33c0,.23,0,.58,0,1l-1.31.27c.08-1.29.1-1.94.1-3s0-1.39-.1-2.47Zm1-9.47h-1.06v.85h1.06Zm-1.06,2.79v.85h1.06v-.85Zm0,2.79v1h1.06v-1Zm1.23,3.75a27.34,27.34,0,0,1,.5,3.84l-1,.25a24.55,24.55,0,0,0-.36-3.87Zm3.64-4.79a10.59,10.59,0,0,0,1.19.1,8.29,8.29,0,0,0-1.19-1.91v.12a10.94,10.94,0,0,0-1.12-.06h-.23v.85h.19a10.19,10.19,0,0,0,1.16-.06v2.06c-.44,0-.77-.06-1.16-.06h-.19v1h.25a9.4,9.4,0,0,0,1.1,0Zm8.22.1a6.91,6.91,0,0,1-2.77-2,7.24,7.24,0,0,1-2.74,2Zm-4.93,6.95h1.06v-1.18h-1.06Z"/><path class="cls-1" d="M211.29,153.43c0,1.41-.35,2.08-1.29,2.45a8.59,8.59,0,0,1-3.1.31l-1.66,0a10.65,10.65,0,0,0-.84-3.22c1.44.12,2.23.18,2.77.18.81,0,.9,0,.9-.47V146h-3.29c-1,0-2,.05-2.79.13V144c-.48.64-.73,1-1.29,1.64v8.05a21.18,21.18,0,0,0,.12,2.71h-3.47a21.55,21.55,0,0,0,.14-2.77v-5a9.76,9.76,0,0,1-1.39,1.23,10.12,10.12,0,0,0-1.31-3.29A15.56,15.56,0,0,0,200,141.4l2.06,1.47a26.55,26.55,0,0,0,2.79.13h7a20.87,20.87,0,0,0,2.77-.13v3.21c-.83-.08-1.75-.13-2.66-.13h-.59Zm-9.09-14.76a2.46,2.46,0,0,0-.36.37,21.59,21.59,0,0,1-5.37,4.29,8.69,8.69,0,0,0-1.66-2.89,12.79,12.79,0,0,0,4-2.81,4.81,4.81,0,0,0,.83-1.08l2.7,2Zm.73-1.12a21.53,21.53,0,0,0,2.68.12H211a22.15,22.15,0,0,0,2.61-.12v3.2c-.84-.08-1.67-.12-2.54-.12h-5.5c-1,0-1.89,0-2.68.12Z"/><path class="cls-1" d="M223.36,142.6c.48,0,1,.07,2.17.07h.72a24.75,24.75,0,0,0,3.25-6l3.56.94c-.17.27-.17.29-.44.79a30.83,30.83,0,0,1-2.56,4.18c3.79-.1,4.31-.12,6.35-.29a25.27,25.27,0,0,0-2.37-2.6l2.85-1.54a45.76,45.76,0,0,1,5.64,6.87l-2.89,1.77c-.57-.88-.73-1.15-1.19-1.79-3.77.46-6.28.6-13.22.85a10.93,10.93,0,0,0-1.41.11Zm1.77,13.7a27.28,27.28,0,0,0,.12-2.77V149a20.63,20.63,0,0,0-.1-2.14c.46,0,1.1.06,2.14.06h11c1,0,1.67,0,2.15-.06a14,14,0,0,0-.11,2.14v4.52a23.8,23.8,0,0,0,.13,2.77H237.1v-.88h-8.7v.88Zm3.25-3.79h8.76v-2.69h-8.76Z"/><path class="cls-1" d="M253.24,147a10.82,10.82,0,0,0-2.76-2.47l1.91-2.46a11.62,11.62,0,0,1,2.62,2.27,4.63,4.63,0,0,0,.11-.54l1.35.33a12.56,12.56,0,0,1-.85,3.27,3.55,3.55,0,0,0-1.42-.77,6.85,6.85,0,0,0,.75-2Zm2.11,2.4a54.72,54.72,0,0,1-1.73,6,5.77,5.77,0,0,0-.21.63,3.17,3.17,0,0,1-.17.49l-2.66-2.22a5.85,5.85,0,0,0,.85-1.69,27.36,27.36,0,0,0,1.4-4.89Zm-.77-7.62c.39,0,.52,0,1.22.06a3.77,3.77,0,0,1,.4-.43,12.42,12.42,0,0,0-1.08-1l-1.31,1.47a12.62,12.62,0,0,0-3-2.74l2.12-2.21a14.26,14.26,0,0,1,2.29,1.92l.44-.61.35.27a10.7,10.7,0,0,0,1-1.79l1.5.92c-.52.75-.94,1.33-1.33,1.85a4.26,4.26,0,0,0,.33.31c.46-.62.79-1.12,1.29-1.93l1.37.91v-.08c.27,0,.5,0,1.06,0h2.44a5.66,5.66,0,0,0,.89-.06V139l.75-1,.34.25a10.8,10.8,0,0,0,1.12-1.73l1.56,1c-.52.64-1,1.25-1.52,1.77l.36.35a23,23,0,0,0,1.41-1.83l1.54,1a29.74,29.74,0,0,1-2.89,2.83c.52,0,.67,0,1.29-.06-.13-.29-.17-.4-.33-.73l1.37-.56a11.14,11.14,0,0,1,1.1,2.45l-1.52.79-.12-.48c-.33.05-.44.05-.75.09v3a6.21,6.21,0,0,0,.08,1.14h-2.08a9.58,9.58,0,0,0,.06-1.14v-2.84c-.93.07-1.52.11-1.72.15l-.25-1.87a4.79,4.79,0,0,0,.83.06c.33-.29.41-.4.64-.6A9.22,9.22,0,0,0,264.5,140v.15a8.5,8.5,0,0,0-1.12,0h-2.23a7.58,7.58,0,0,0-1,0V139a23.51,23.51,0,0,1-1.62,1.88l1.14-.46a16,16,0,0,1,.77,1.81v0c.4,0,.67,0,1,0h1.75c.36,0,.63,0,1,0v1.31c-.41,0-.68,0-1,0h-1.81c-.31,0-.56,0-1,0V143l-1.2.64-.11-.43a4.71,4.71,0,0,1-.58.06v.81l1.23-.37a14.25,14.25,0,0,1,.64,2.62v-1.44c0-.48,0-.71,0-1,.31,0,.63.05,1.06.05h1.77c.44,0,.75,0,1-.05,0,.25,0,.4,0,1V146a8.21,8.21,0,0,0,.57-2.31l1.39.5a11.22,11.22,0,0,1-.77,3.12,3.14,3.14,0,0,0-1.19-.86c0,.52,0,.63,0,.92a7.36,7.36,0,0,0-1,0h-1.77c-.52,0-.75,0-1.06,0,0-.37,0-.46,0-1l-1.29.44a12.57,12.57,0,0,0-.58-2.71v2.08a9.4,9.4,0,0,0,.06,1.15h-2.1a9.4,9.4,0,0,0,.06-1.15v-2.78c-.2,0-.37,0-.5,0a8.46,8.46,0,0,0-1.2.12Zm3.83,11.84a10.43,10.43,0,0,1-.44,1l-3.21-.48a12.22,12.22,0,0,0,1.59-4.26c.29,0,.68,0,1.18,0h8.29v-.5h-8.1a14.74,14.74,0,0,0-1.85.06V147.7a12.66,12.66,0,0,0,1.85.09h9a20.37,20.37,0,0,0,2.17-.09,7.87,7.87,0,0,0-.09,1.36v1a7.34,7.34,0,0,0,.09,1.39c-.65,0-1,0-2,0h-7.83c-.06.27-.08.29-.12.52h9.34a9.57,9.57,0,0,0,1.36-.08,15.88,15.88,0,0,0-.25,1.68c-.32,2.48-.8,2.83-3.67,2.83-.83,0-1.7,0-2.6-.1a7.18,7.18,0,0,0-.77-2.1,23.48,23.48,0,0,0,2.75.2c1,0,1.14-.06,1.18-.79Zm.27-11.86c-.13-.35-.17-.44-.29-.73l-.75.79C258.07,141.79,258.24,141.79,258.68,141.75Zm5.43-3.43c-.31,0-.58,0-.83,0h-2a8.73,8.73,0,0,0-1,0v-1.38a7.57,7.57,0,0,0,1,.06h1.94a7.36,7.36,0,0,0,1-.06v1.38Zm.08,3.53c-.39,0-.71,0-1,0h-1.81c-.29,0-.58,0-1,0v-1.33a7.16,7.16,0,0,0,1,.06h1.77a7.07,7.07,0,0,0,1-.06ZM261.92,146h.77v-.8h-.77Zm7.81-2.4a7.22,7.22,0,0,0,.91,2.69,5.16,5.16,0,0,0-1.58.87,12,12,0,0,1-.77-3Z"/><path class="cls-1" d="M171.33,168.06a5.55,5.55,0,0,1,.89,1.12l-1.08.74a5.33,5.33,0,0,0-.71-1.1l-.61.19c0-.15,0-.19,0-.3l-.46,0v2.87a5.84,5.84,0,0,0,.06,1H168a5.84,5.84,0,0,0,.06-1v-2.79l-.68,0a5,5,0,0,0-.56.05l-.11-1.35a2.93,2.93,0,0,0,.6,0h.22l.22-.28a9.33,9.33,0,0,0-1.07-1.52l.63-1.17.22.28a5.76,5.76,0,0,0,.55-1.37l1.23.49c-.08.14-.09.16-.31.59a13.34,13.34,0,0,1-.72,1.27,2.92,2.92,0,0,1,.21.32,10.12,10.12,0,0,0,.87-1.61l1.12.58-.37.56a19.39,19.39,0,0,1-1.32,1.84l.72-.05c-.08-.28-.09-.33-.18-.61l.69-.19c.16.46.23.66.33,1v-1a6.12,6.12,0,0,0,.92.05h2l.11-.34h-2.1c-.3,0-.47,0-.81,0a11.75,11.75,0,0,0,.82-2.92l1.45.11a1.13,1.13,0,0,0-.09.35h1.72a7.83,7.83,0,0,0,1,0,1.94,1.94,0,0,1-.06.22,6.47,6.47,0,0,1-.14.71c-.09.51-.28,1.35-.43,1.88h.11a5.87,5.87,0,0,0,.93-.05v1.29c-.32,0-.37,0-.87,0l.89.86a9.08,9.08,0,0,1-1.12,1,5.59,5.59,0,0,0,1.25,1.23,6,6,0,0,0-.84,1.25,3.8,3.8,0,0,1-.77-.79,6.33,6.33,0,0,1-.69-1.21l0,.33c0,.09,0,.36,0,.41v.47c0,.46-.06.64-.26.8a2,2,0,0,1-1.21.26c-.21,0-.34,0-.6,0a4.51,4.51,0,0,0-.24-1.09c-.15.13-.28.22-.44.34l-.41.28-.3-.7-.54.14a21.55,21.55,0,0,0-.19-2.34l.78-.14c.1.63.12.81.19,1.48a8.56,8.56,0,0,0,1.6-1.07l.26.74v-2.19Zm-3.42,1.16a19.77,19.77,0,0,1-.27,3l-.93-.47a12.08,12.08,0,0,0,.3-2.67Zm3.35-1.16-.8,0c0,.21.07.33.09.41Zm1,2.66c-.24.22-.49.44-.75.65l.37,0c.32,0,.38,0,.38-.22Zm1.37-5.22c0-.19,0-.19.07-.39h-1.34c0,.14-.06.21-.12.39Zm0,2.56v.11a3.33,3.33,0,0,0,.32.66,6.21,6.21,0,0,0,.85-.77Z"/><path class="cls-1" d="M205.3,166.17a5.89,5.89,0,0,0,.92,0c0,.24,0,.43,0,.77v2.05c0,.32,0,.51,0,.76l-.89,0h-4.89v1.07c0,.2,0,.27.2.33a11.92,11.92,0,0,0,2.23.1,5.89,5.89,0,0,0,2.31-.19c.15-.12.2-.42.2-1.23a5,5,0,0,0,1.54.47,4,4,0,0,1-.25,1.46c-.33.71-.88.82-4.07.82-2,0-2.93-.1-3.31-.38s-.34-.41-.34-.92v-3.87a3.84,3.84,0,0,1-.4.27,4.52,4.52,0,0,0-.66-1.34,6.29,6.29,0,0,0,2-1.57,3.56,3.56,0,0,0,.68-1.16l1.62.23a4.2,4.2,0,0,0-.26.43h1.43a5,5,0,0,0,1,0l.83.65a4.79,4.79,0,0,0-.33.41c-.29.38-.49.63-.79,1Zm-3.05,0a5.12,5.12,0,0,0,.63-.75H201a7.9,7.9,0,0,1-.68.75Zm-.41,1.32h-1.4v.9h1.4Zm1.38.9h1.51v-.9h-1.51Z"/><path class="cls-1" d="M232.91,164.77a6.75,6.75,0,0,0-.06-1h1.63a5.93,5.93,0,0,0-.06,1v1.78H236v-1.32a6.17,6.17,0,0,0,0-.8h1.56a6,6,0,0,0-.05.91v1.89a4.65,4.65,0,0,0,0,.73,5.44,5.44,0,0,0-.76,0h-2.34v2.83h1.9v-1.38a6.71,6.71,0,0,0,0-.82h1.55a8.7,8.7,0,0,0-.05,1v2a7.11,7.11,0,0,0,.06,1.09h-1.52v-.41h-5.18v.41h-1.53a8.27,8.27,0,0,0,.06-1.09v-1.94a8.5,8.5,0,0,0,0-1h1.55c0,.22,0,.43,0,.83v1.36h1.77v-2.83h-2.18a5.57,5.57,0,0,0-.78,0c0-.2,0-.44,0-.73v-1.88c0-.17,0-.74,0-.92h1.55a5.67,5.67,0,0,0,0,.81v1.31h1.46Z"/><path class="cls-1" d="M267.93,171.29c0,.64-.16,1-.59,1.12a4.1,4.1,0,0,1-1.42.14h-.76a4.83,4.83,0,0,0-.38-1.47c.66.05,1,.08,1.27.08s.41,0,.41-.22v-3.06H265c-.45,0-.91,0-1.27,0v-1c-.22.3-.34.45-.59.76v3.68a9.1,9.1,0,0,0,.05,1.24h-1.59a9,9,0,0,0,.07-1.27V169.1a4.35,4.35,0,0,1-.64.56,4.64,4.64,0,0,0-.6-1.51,7,7,0,0,0,2.36-2.37l.94.68a12.65,12.65,0,0,0,1.28.06h3.19a9.87,9.87,0,0,0,1.27-.06v1.46c-.38,0-.8,0-1.22,0h-.27Zm-4.16-6.76a1.29,1.29,0,0,0-.16.18,10.12,10.12,0,0,1-2.46,2,4.21,4.21,0,0,0-.76-1.33,5.9,5.9,0,0,0,1.82-1.28,2.2,2.2,0,0,0,.38-.5l1.24.92Zm.33-.51a9.17,9.17,0,0,0,1.23.06h2.49A9.32,9.32,0,0,0,269,164v1.47a11,11,0,0,0-1.16-.06h-2.52a11.65,11.65,0,0,0-1.23.06Z"/><path class="cls-2" d="M29.36,164.15c5.77.25,10.88-1.67,15.63-4.79a34.3,34.3,0,0,1,13.75-5.73c8.62-1.3,16.75-.15,24.23,4.57,3.58,2.26,7.13,4.63,11.41,5.39,2,.35,4,.51,6.11.78v8.77a30.4,30.4,0,0,1-16.82-4.29c-1.54-.91-3-1.88-4.6-2.76-9.52-5.43-19.07-5.4-28.52.11-4,2.35-7.87,5.06-12.52,6-2.85.55-5.78.64-8.67.94Z"/><path class="cls-2" d="M37.57,131.62a20.8,20.8,0,0,0,12.49-3.83,27.45,27.45,0,0,1,11-4.58c6.88-1,13.38-.12,19.36,3.65,2.86,1.81,5.7,3.7,9.11,4.31,1.59.28,3.2.41,4.89.62v7A24.26,24.26,0,0,1,81,135.37c-1.23-.72-2.43-1.5-3.68-2.21-7.61-4.33-15.23-4.31-22.79.1-3.21,1.87-6.29,4-10,4.76-2.27.45-4.62.52-6.93.76Z"/><path class="cls-2" d="M82,144.12c5.77.25,10.88-1.66,15.63-4.78a34.18,34.18,0,0,1,13.75-5.74c8.62-1.3,16.75-.15,24.23,4.57,3.58,2.27,7.13,4.63,11.41,5.39,2,.35,4,.52,6.11.78v8.77a30.26,30.26,0,0,1-16.81-4.29c-1.54-.91-3.05-1.88-4.6-2.76-9.53-5.43-19.07-5.4-28.53.12-4,2.34-7.87,5-12.52,6-2.84.55-5.78.64-8.67.94Z"/><path class="cls-2" d="M67.6,177.19H58.84V166.1H67.6Z"/><path class="cls-2" d="M121.93,157.86h-8.76V146.77h8.76Z"/><path class="cls-2" d="M69.3,146.77H60.54V135.68H69.3Z"/></svg>